<svg xmlns="http://www.w3.org/2000/svg" viewBox="0 0 59.23 30.21">
    <defs>
        <style>.cls-1{fill:#434343;}.cls-2{fill:url(#linear-gradient);}.cls-3{fill:#b0b0b0;}</style>
        <linearGradient id="linear-gradient" x1="-8.33" y1="22.34" x2="-8.37" y2="14.64"
                        gradientTransform="translate(37.96 -15.66)" gradientUnits="userSpaceOnUse">
            <stop offset="0" stop-color="#fff"/>
            <stop offset="0.28" stop-color="#c9c9c9" stop-opacity="0.76"/>
            <stop offset="0.93" stop-color="#424242" stop-opacity="0.16"/>
            <stop offset="1" stop-color="#333" stop-opacity="0.1"/>
        </linearGradient>
    </defs>
    <title>honor</title>
    <g id="Layer_2" data-name="Layer 2">
        <g id="Layer_1-2" data-name="Layer 1">
            <g id="honor">
                <g id="phone">
                    <rect class="cls-1" y="4.68" width="59.23" height="25.53"
                          transform="translate(59.23 34.89) rotate(180)"/>
                    <polygon class="cls-2" points="59.23 4.68 0 4.68 10 0 49.23 0 59.23 4.68"/>
                </g>
                <g id="honor-2" data-name="honor">
                    <path class="cls-3"
                          d="M20.36,16h.21c.44,0,.88,0,1.33,0,1,0,2,0,3,0a1.86,1.86,0,0,1,1.38.55,1.52,1.52,0,0,1,.4.8,5.64,5.64,0,0,1,.05.82c0,.74,0,1.48,0,2.21a2.93,2.93,0,0,1-.15,1.21,1.66,1.66,0,0,1-1,.92,3,3,0,0,1-1,.12H21a2.24,2.24,0,0,1-.81-.15,1.65,1.65,0,0,1-1.07-1.66c0-1,0-2,0-2.94a1.94,1.94,0,0,1,.14-.89A2.31,2.31,0,0,1,20.36,16Zm2.58,1.17H20.85a.46.46,0,0,0-.52.43,1.65,1.65,0,0,0,0,.31c0,.92,0,1.83,0,2.75a1.84,1.84,0,0,0,.05.41c0,.23.15.3.39.31h.55c1.28.05,2.56.05,3.83,0a.39.39,0,0,0,.44-.45c0-1.06,0-2.12,0-3.18,0-.43-.17-.59-.61-.59Z"/>
                    <path class="cls-3"
                          d="M44.08,17.07l0,.16c0,.21,0,.43,0,.65v2.78a2,2,0,0,1-.23,1,1.56,1.56,0,0,1-1.19.84A14.62,14.62,0,0,1,41,22.6c-.82,0-1.64,0-2.45,0a2.59,2.59,0,0,1-.91-.15,1.46,1.46,0,0,1-1-1.21,9.18,9.18,0,0,1-.07-1.17c0-.66,0-1.33,0-2a2.68,2.68,0,0,1,.13-1A3.64,3.64,0,0,1,37,16.6a1.16,1.16,0,0,1,1-.55c1.47,0,3,0,4.42,0a1.57,1.57,0,0,1,1.43.83A.45.45,0,0,0,44.08,17.07Zm-3.49,4.4c.59,0,1.26,0,1.93,0,.31,0,.43-.15.45-.46,0-.71.05-1.41,0-2.11a6.86,6.86,0,0,0-.07-1.36c0-.24-.12-.31-.37-.32l-1.67,0c-.87,0-1.73,0-2.59,0a.56.56,0,0,0-.61.63v1.32c0,.52,0,1.05,0,1.58a2.58,2.58,0,0,0,0,.39c0,.21.23.31.56.34C39,21.48,39.77,21.45,40.59,21.47Z"/>
                    <path class="cls-3"
                          d="M10.62,12.5h.26a.09.09,0,0,0,.1,0c0,.06,0,.08.1.08a.45.45,0,0,1,.28.46c0,.72,0,1.44,0,2.16a2.09,2.09,0,0,0,0,.25c0,.39.14.49.54.5l2.39,0,2,0h.16a1.68,1.68,0,0,1,1,.75,1.76,1.76,0,0,1,.29,1c0,1.44,0,2.88,0,4.31a.65.65,0,0,1-.42.67c-.41.15-.79-.16-.79-.66v-2c0-.63,0-1.25,0-1.88,0-.19,0-.38,0-.57s-.09-.38-.4-.42a8,8,0,0,0-1.2,0H12.43c-.31,0-.61,0-.91,0a1.47,1.47,0,0,1-.63-.27,1.55,1.55,0,0,1-.7-1.29c0-.83,0-1.67,0-2.5a.5.5,0,0,1,.23-.47A.58.58,0,0,0,10.62,12.5Z"/>
                    <path class="cls-3"
                          d="M34,22.31a1.35,1.35,0,0,0,0-.49.39.39,0,0,0,0-.28V18a.3.3,0,0,0,0-.1c0-.12,0-.23,0-.35a.31.31,0,0,0-.31-.32c-.33,0-.65,0-1,0s-.9,0-1.35,0H28.6a.57.57,0,0,1-.46-.19.6.6,0,0,1-.05-.73A.52.52,0,0,1,28.6,16h5a1.56,1.56,0,0,1,.64.17c.23.1.37.31.58.43,0,.08.07.11.1.18l0,.05s0,0,0,0c0,.16.15.29.15.46,0,1.62,0,3.23,0,4.84a.32.32,0,0,1-.14.27.68.68,0,0,1-.87,0Z"/>
                    <path class="cls-3"
                          d="M46.33,16.2a.4.4,0,0,0,.23-.08,1.79,1.79,0,0,1,.51-.11h4c.34,0,.4,0,.53.35a.59.59,0,0,1-.53.82c-.63,0-1.25,0-1.88,0h-2a.4.4,0,0,0-.44.35,2,2,0,0,0,0,.42v4.19a.43.43,0,0,1-.34.46.73.73,0,0,1-.82-.24l0-1.61c0-.57,0-1.15,0-1.72V18.2A2,2,0,0,1,45.73,17,2.92,2.92,0,0,1,46.33,16.2Z"/>
                    <path class="cls-3"
                          d="M28.15,18.69a.69.69,0,0,0,0-.32c.05,0,.05-.07.07-.1a.54.54,0,0,1,1,.23v3.59a.67.67,0,0,1-.59.51.57.57,0,0,1-.49-.59c0-1,0-2,0-3.06A.76.76,0,0,0,28.15,18.69Z"/>
                    <path class="cls-3"
                          d="M10.21,20.29c0-.53,0-1.19,0-1.86a.45.45,0,0,1,.44-.45.48.48,0,0,1,.57.41,2.16,2.16,0,0,1,0,.35c0,1.11,0,2.22,0,3.32a.94.94,0,0,1-.07.37.48.48,0,0,1-.56.3.44.44,0,0,1-.44-.35,1,1,0,0,1,0-.29Z"/>
                </g>
            </g>
        </g>
    </g>
</svg>
