<svg xmlns="http://www.w3.org/2000/svg" viewBox="0 0 59.23 30.21">
    <defs>
        <style>.cls-1{fill:#434343;}.cls-2{fill:url(#linear-gradient);}.cls-3{fill:#b0b0b0;}</style>
        <linearGradient id="linear-gradient" x1="-8.33" y1="22.34" x2="-8.37" y2="14.64"
                        gradientTransform="translate(37.96 -15.66)" gradientUnits="userSpaceOnUse">
            <stop offset="0" stop-color="#fff"/>
            <stop offset="0.28" stop-color="#c9c9c9" stop-opacity="0.76"/>
            <stop offset="0.93" stop-color="#424242" stop-opacity="0.16"/>
            <stop offset="1" stop-color="#333" stop-opacity="0.1"/>
        </linearGradient>
    </defs>
    <title>Asset 2</title>
    <g id="Layer_2" data-name="Layer 2">
        <g id="Layer_1-2" data-name="Layer 1">
            <g id="phone">
                <rect class="cls-1" y="4.68" width="59.23" height="25.53"
                      transform="translate(59.23 34.89) rotate(180)"/>
                <polygon id="box" class="cls-2" points="59.23 4.68 0 4.68 10 0 49.23 0 59.23 4.68"/>
                <g id="name">
                    <path class="cls-3"
                          d="M38.83,17.68c.08-.79.09-1.38.19-1.95.45-2.34,1.79-3.49,4-3.49a3.63,3.63,0,0,1,4,3.47,12.5,12.5,0,0,1-.2,4.27c-.41,1.85-1.9,2.74-3.88,2.71a3.62,3.62,0,0,1-3.74-2.78A16.8,16.8,0,0,1,38.83,17.68Zm6-.22c-.11-.78-.17-1.56-.33-2.33A1.32,1.32,0,0,0,43.08,14c-.75,0-1.37.33-1.42,1.06a40.12,40.12,0,0,0,0,4.78c0,.72.65,1.09,1.4,1.09a1.34,1.34,0,0,0,1.41-1.12C44.63,19,44.69,18.26,44.8,17.46Z"/>
                    <path class="cls-3"
                          d="M29.54,17.31c-.11.8-.15,1.42-.28,2-.48,2.3-1.84,3.41-4.09,3.36a3.64,3.64,0,0,1-3.83-3.53,13.81,13.81,0,0,1,.25-4.35c.4-1.74,1.78-2.55,3.65-2.57A3.51,3.51,0,0,1,29,14.77,18.4,18.4,0,0,1,29.54,17.31Zm-2.48.15c-.11-.82-.18-1.65-.35-2.44a1.3,1.3,0,0,0-1.47-1c-.72,0-1.3.38-1.33,1.06a31.9,31.9,0,0,0,0,4.79c0,.4.79.9,1.3,1a1.18,1.18,0,0,0,1.46-1C26.88,19.1,27,18.28,27.06,17.46Z"/>
                    <path class="cls-3"
                          d="M14.63,19c0,1,0,1.91,0,2.79s-.54.95-1.21.93-1.34.14-1.33-.92c0-2.85,0-5.7,0-8.55,0-.59.21-.88.84-.89,1.13,0,2.27-.1,3.4-.1a3.25,3.25,0,0,1,3.52,3.35A3.3,3.3,0,0,1,16.38,19Zm0-1.84A6.31,6.31,0,0,0,16.56,17a1.82,1.82,0,0,0,1-1.17,1.76,1.76,0,0,0-.73-1.47,5.24,5.24,0,0,0-2.07-.12s-.14.23-.14.35C14.64,15.39,14.64,16.2,14.64,17.14Z"/>
                    <path class="cls-3"
                          d="M35.21,12.17c.63.13,1.28.23,1.9.4.44.13,1,.2.75.94-.21.58-.39,1-1.22.86-2.22-.38-3.17.34-3.37,2.6-.22,2.55.83,4.22,3.49,3.6.82-.19,1,.36,1.07.87a1.18,1.18,0,0,1-.66.87c-3.51,1.3-6.27-.58-6.33-4.3a10.9,10.9,0,0,1,.21-2.55A3.92,3.92,0,0,1,35.21,12.17Z"/>
                </g>
            </g>
        </g>
    </g>
</svg>
