<svg xmlns="http://www.w3.org/2000/svg" xmlns:xlink="http://www.w3.org/1999/xlink" viewBox="0 0 59.23 30.21"><defs><style>.cls-1{fill:#434343;}.cls-2{fill:url(#linear-gradient);}.cls-3{fill:#b0b0b0;}</style><linearGradient id="linear-gradient" x1="-8.33" y1="22.34" x2="-8.37" y2="14.64" gradientTransform="translate(37.96 -15.66)" gradientUnits="userSpaceOnUse"><stop offset="0" stop-color="#fff"/><stop offset="0.28" stop-color="#c9c9c9" stop-opacity="0.76"/><stop offset="0.93" stop-color="#424242" stop-opacity="0.16"/><stop offset="1" stop-color="#333" stop-opacity="0.1"/></linearGradient></defs><title>samsung</title><g id="Layer_2" data-name="Layer 2"><g id="Layer_1-2" data-name="Layer 1"><g id="samsung"><g id="box"><rect class="cls-1" y="4.68" width="59.23" height="25.53" transform="translate(59.23 34.89) rotate(180)"/><polygon class="cls-2" points="59.23 4.68 0 4.68 10 0 49.23 0 59.23 4.68"/></g><g id="samsung-2" data-name="samsung"><path class="cls-3" d="M20.35,16.06c0,1.38-.05,2.76,0,4.14,0,.82-.53.6-1,.64s-.77,0-.74-.62c.07-1.89.11-3.77.14-5.65,0-.43.17-.58.58-.56a13.87,13.87,0,0,0,1.58,0c.53,0,.69.23.76.69.18,1.29.41,2.57.62,3.9.4-.16.34-.46.38-.71.19-1.09.39-2.18.53-3.27.06-.49.28-.63.73-.6a13.64,13.64,0,0,0,1.43,0c.54,0,.76.14.77.71,0,1.83,0,3.66.1,5.5,0,.6-.31.65-.76.62s-.94.15-.93-.6c0-1.23,0-2.46,0-3.69a1.85,1.85,0,0,0-.2-1c-.19.92-.35,1.65-.49,2.38s-.3,1.53-.4,2.3-.47.67-1,.64-.92.12-1-.62c-.2-1.42-.52-2.81-.79-4.22a1.28,1.28,0,0,0-.2-.83A1.14,1.14,0,0,0,20.35,16.06Z"/><path class="cls-3" d="M45.36,18.85c0-1.31,0-2.58,0-3.84,0-.91.59-1.32,1.43-1,.26.11.22.31.22.5,0,1.9,0,3.81,0,5.72,0,.38-.16.55-.54.53h-.15c-2.11,0-1.61.3-2.22-1.6-.35-1.09-.68-2.19-1.05-3.4a1.08,1.08,0,0,0-.2.88c0,1.18,0,2.36.08,3.54,0,.57-.31.62-.71.57s-1,.24-1-.54q0-2.82,0-5.64c0-.41.13-.62.56-.59h.08c2.34.06,1.74-.4,2.43,1.8.3,1,.57,1.92.87,2.88C45.2,18.74,45.27,18.78,45.36,18.85Z"/><path class="cls-3" d="M48.87,17.39c0-.47,0-.95,0-1.42a3.74,3.74,0,0,1,.07-.75c.21-1,1.21-1.49,2.75-1.37,1.26.1,1.94.69,2,1.72,0,.38,0,.64-.51.61s-1.24.23-1.29-.75c0-.31-.38-.44-.71-.4a.59.59,0,0,0-.6.57,25.44,25.44,0,0,0,0,3.6c0,.39.34.55.7.55s.71-.2.69-.63.31-1-.47-1.21c-.23-.05-.19-.32-.17-.52s.13-.39.38-.39c.53,0,1,0,1.58,0,.31,0,.43.2.43.5,0,.6,0,1.2,0,1.8a1.67,1.67,0,0,1-1.27,1.52,3.64,3.64,0,0,1-2.07.05,1.71,1.71,0,0,1-1.46-1.82c0-.55,0-1.1,0-1.66Z"/><path class="cls-3" d="M7.85,13.79c1.44,0,2.16.36,2.38,1.22.08.32.32.76-.22,1s-1.3,0-1.41-.47A.64.64,0,0,0,8,14.94a.56.56,0,0,0-.61.35.64.64,0,0,0,.27.85c.58.38,1.21.7,1.79,1.09a2.08,2.08,0,0,1,.91,2.61c-.32,1-1.37,1.42-3,1.21a1.86,1.86,0,0,1-1.83-1.74c0-.46.07-.71.6-.69s1.26-.15,1.3.84c0,.44.53.51.91.36a.63.63,0,0,0,.34-.93A1.31,1.31,0,0,0,8,18.27c-.5-.3-1-.56-1.49-.89a1.83,1.83,0,0,1-.92-2.18c.2-.83.7-1.22,1.75-1.37A3.76,3.76,0,0,1,7.85,13.79Z"/><path class="cls-3" d="M30.43,21.06c-1.51,0-2.32-.55-2.44-1.67,0-.35-.1-.81.43-.75s1.24-.47,1.36.51c0,.37.15.64.54.7a.65.65,0,0,0,.77-.35.74.74,0,0,0-.24-.94,12.26,12.26,0,0,0-1.14-.73,6.44,6.44,0,0,1-1.12-.75,1.87,1.87,0,0,1-.48-2,1.6,1.6,0,0,1,1.36-1.15,5.11,5.11,0,0,1,1.87,0,1.52,1.52,0,0,1,1.18.84c.18.37.36.87,0,1.12s-.91.15-1.38.06c-.21,0-.17-.28-.19-.44a.56.56,0,0,0-.56-.52.55.55,0,0,0-.62.32.66.66,0,0,0,.19.82c.54.36,1.11.67,1.67,1a2.1,2.1,0,0,1,1.18,1.63C33,20.29,32.18,21.05,30.43,21.06Z"/><path class="cls-3" d="M39.29,17c0,.76,0,1.51,0,2.26a1.6,1.6,0,0,1-1.21,1.62,3.92,3.92,0,0,1-2.3,0,1.69,1.69,0,0,1-1.28-1.74c0-1.53,0-3.06,0-4.59,0-.73.49-.54.88-.56s.87-.11.85.59c0,1.41,0,2.81,0,4.22,0,.51.08,1,.73,1s.66-.5.66-1c0-1.35,0-2.71,0-4.06,0-.67.29-.79.86-.78s.93,0,.88.75,0,1.5,0,2.25Z"/><path class="cls-3" d="M14.07,16.82c-.18,1.14-.34,2.29-.52,3.42,0,.24,0,.56-.38.57a2.56,2.56,0,0,1-1.4-.09c-.14-.08-.07-.33,0-.5.35-1.87.72-3.74,1-5.62.07-.42.23-.62.68-.59.77,0,1.69-.22,2.29.12s.43,1.41.59,2.15c.28,1.27.47,2.56.73,3.84.11.51,0,.73-.58.73-1.08,0-1.09,0-1.26-1-.22-1.36-.43-2.72-.64-4.08a1.46,1.46,0,0,0-.14-.89,1.43,1.43,0,0,0-.23.93l-.08.72Z"/><path class="cls-3" d="M14.22,15.77a1.43,1.43,0,0,1,.23-.93,1.46,1.46,0,0,1,.14.89Z"/><path class="cls-3" d="M20.35,16.06a1.14,1.14,0,0,1,.1-.89,1.28,1.28,0,0,1,.2.83Z"/><path class="cls-3" d="M14.07,16.82l.07-.33A.24.24,0,0,1,14.07,16.82Z"/></g></g></g></g></svg>