<svg xmlns="http://www.w3.org/2000/svg" xmlns:xlink="http://www.w3.org/1999/xlink" viewBox="0 0 59.23 30.21"><defs><style>.cls-1{fill:#434343;}.cls-2{fill:url(#linear-gradient);}.cls-3{fill:#b0b0b0;}</style><linearGradient id="linear-gradient" x1="-8.33" y1="22.34" x2="-8.37" y2="14.64" gradientTransform="translate(37.96 -15.66)" gradientUnits="userSpaceOnUse"><stop offset="0" stop-color="#fff"/><stop offset="0.28" stop-color="#c9c9c9" stop-opacity="0.76"/><stop offset="0.93" stop-color="#424242" stop-opacity="0.16"/><stop offset="1" stop-color="#333" stop-opacity="0.1"/></linearGradient></defs><title>vivo</title><g id="Layer_2" data-name="Layer 2"><g id="Layer_1-2" data-name="Layer 1"><g id="vivo"><g id="box"><rect class="cls-1" y="4.68" width="59.23" height="25.53" transform="translate(59.23 34.89) rotate(180)"/><polygon class="cls-2" points="59.23 4.68 0 4.68 10 0 49.23 0 59.23 4.68"/></g><g id="vivo-2" data-name="vivo"><path class="cls-3" d="M42.48,24.48a4.38,4.38,0,0,1-4.35-3.54,4.21,4.21,0,0,1,2.19-4.46A4.5,4.5,0,0,1,46.23,18a4.19,4.19,0,0,1-1.38,5.87A4.53,4.53,0,0,1,42.48,24.48Zm-1.8-4.29A1.75,1.75,0,0,0,42.47,22a1.74,1.74,0,1,0,0-3.48A1.75,1.75,0,0,0,40.68,20.19Z"/><path class="cls-3" d="M32.68,20.6l.86-1.69,1.35-2.66a.79.79,0,0,1,1.19-.39l.94.51a.88.88,0,0,1,.37,1.34c-.4.72-.82,1.44-1.24,2.16-.64,1.11-1.28,2.22-1.93,3.33-.08.14-.18.27-.28.41a1.74,1.74,0,0,1-2.88-.16c-.49-.94-1-1.85-1.54-2.77L28,17.9a3.28,3.28,0,0,1-.24-.54A.65.65,0,0,1,28,16.6a11.82,11.82,0,0,1,1.2-.79.62.62,0,0,1,1,.28c.53.9,1,1.81,1.55,2.72l.88,1.61Z"/><path class="cls-3" d="M17.31,20.65l.15-.28,2-4a.81.81,0,0,1,1.3-.4l.9.49a.88.88,0,0,1,.36,1.28l-3.15,5.45a4,4,0,0,1-.38.54,1.72,1.72,0,0,1-2.41.26,2.58,2.58,0,0,1-.54-.69c-1-1.81-2-3.61-3-5.43-.41-.74-.33-1,.38-1.48l.65-.43a.74.74,0,0,1,1.21.28c.77,1.36,1.52,2.72,2.28,4.08C17.16,20.4,17.22,20.51,17.31,20.65Z"/><path class="cls-3" d="M26.44,20.16v3.4a1.58,1.58,0,0,1-.05.38.54.54,0,0,1-.57.45H24.2c-.45,0-.67-.25-.67-.74,0-.9,0-1.8,0-2.7v-4a2.71,2.71,0,0,1,0-.29c.05-.38.21-.58.59-.59a17,17,0,0,1,1.75,0c.42,0,.55.2.56.64v3.48Z"/><path class="cls-3" d="M26.65,13.11A1.63,1.63,0,1,1,25,11.48,1.63,1.63,0,0,1,26.65,13.11Z"/></g></g></g></g></svg>