<svg xmlns="http://www.w3.org/2000/svg" viewBox="0 0 59.23 30.21">
    <defs>
        <style>.cls-1{fill:#434343;}.cls-2{fill:url(#linear-gradient);}.cls-3{fill:#b0b0b0;}</style>
        <linearGradient id="linear-gradient" x1="-8.33" y1="22.34" x2="-8.37" y2="14.64"
                        gradientTransform="translate(37.96 -15.66)" gradientUnits="userSpaceOnUse">
            <stop offset="0" stop-color="#fff"/>
            <stop offset="0.28" stop-color="#c9c9c9" stop-opacity="0.76"/>
            <stop offset="0.93" stop-color="#424242" stop-opacity="0.16"/>
            <stop offset="1" stop-color="#333" stop-opacity="0.1"/>
        </linearGradient>
    </defs>
    <title>apple</title>
    <g id="Layer_2" data-name="Layer 2">
        <g id="Layer_1-2" data-name="Layer 1">
            <g id="apple">
                <g id="box">
                    <rect class="cls-1" y="4.68" width="59.23" height="25.53"
                          transform="translate(59.23 34.89) rotate(180)"/>
                    <polygon class="cls-2" points="59.23 4.68 0 4.68 10 0 49.23 0 59.23 4.68"/>
                </g>
                <g id="apple-2" data-name="apple">
                    <path class="cls-3"
                          d="M36.75,13.68c-.25.24-.5.46-.74.7a4,4,0,0,0-1.16,2.13,4.17,4.17,0,0,0,0,1.41,4.22,4.22,0,0,0,1.69,2.8c.23.16.49.27.76.42-.12.31-.24.64-.38,1a11.51,11.51,0,0,1-1.57,2.55,4.28,4.28,0,0,1-1.24,1.08,2.1,2.1,0,0,1-1.61.19c-.44-.12-.87-.26-1.3-.4a3.64,3.64,0,0,0-1.7-.19,4.83,4.83,0,0,0-1.18.34,4.41,4.41,0,0,1-1.19.35,2.3,2.3,0,0,1-1.65-.51A6,6,0,0,1,24.08,24a13.69,13.69,0,0,1-1.51-3A10.26,10.26,0,0,1,22,18.51a8.26,8.26,0,0,1,.25-3.05,5.18,5.18,0,0,1,1.61-2.6A3.61,3.61,0,0,1,26,12a6.54,6.54,0,0,1,2,.24l1.57.38a1.68,1.68,0,0,0,.86-.07c.45-.12.89-.27,1.34-.4a5.44,5.44,0,0,1,1.45-.25,4.09,4.09,0,0,1,3.22,1.45Z"/>
                    <path class="cls-3"
                          d="M33.1,7.74a4.9,4.9,0,0,1,0,.54,4.09,4.09,0,0,1-.5,1.81,4.43,4.43,0,0,1-1.39,1.59,2.52,2.52,0,0,1-1.23.45l-.56.07c0-.17,0-.33,0-.49A5.19,5.19,0,0,1,30,9.87,3.7,3.7,0,0,1,31.7,8.21,7.63,7.63,0,0,1,33,7.75Z"/>
                </g>
            </g>
        </g>
    </g>
</svg>
