<svg xmlns="http://www.w3.org/2000/svg" xmlns:xlink="http://www.w3.org/1999/xlink" viewBox="0 0 100.49 175.78"><defs><style>.cls-1{fill:#231f20;}</style></defs><title>per</title><g id="Layer_2" data-name="Layer 2"><g id="Layer_1-2" data-name="Layer 1"><image width="301" height="562" transform="translate(0 15.85) scale(0.28)" xlink:href="../4x/yeah.png"/><path class="cls-1" d="M21.17,0a14.29,14.29,0,0,1,10.7,4,13.41,13.41,0,0,1,4.28,9.64,12.37,12.37,0,0,1-.87,4.9A10.33,10.33,0,0,1,33,22.12a18,18,0,0,1-2.69,2.23,15.06,15.06,0,0,1-2.29,1.3l-1,.32a10.15,10.15,0,0,1-.06,1.6,3.08,3.08,0,0,1-.54,1.21,2.62,2.62,0,0,1-1.52.95,12.19,12.19,0,0,1-2.85.32,10.82,10.82,0,0,1-2.86-.26,2.41,2.41,0,0,1-1.53-1,4,4,0,0,1-.54-1.31,12.05,12.05,0,0,1-.12-1.81,1.08,1.08,0,0,1,0-.22,1.41,1.41,0,0,0,0-.28A5.69,5.69,0,0,1,18.54,21a7.24,7.24,0,0,1,3.25-2.08,9.4,9.4,0,0,0,3.26-1.72,3.71,3.71,0,0,0,1.46-3.1,4.27,4.27,0,0,0-1.19-3.17c-.77-.73-2.1-1.07-4-1a5,5,0,0,0-2.78.75,3,3,0,0,0-1.3,1.47l-.17.74a7.24,7.24,0,0,1-1.25,2.45,2.64,2.64,0,0,1-2.08.86,7.32,7.32,0,0,1-2.46-.51A10.36,10.36,0,0,1,8,13.87,2.56,2.56,0,0,1,7.11,12a8.93,8.93,0,0,1,.45-2.16l.12-.31c.08-.25.19-.59.35-1A14.07,14.07,0,0,1,9.32,6.23a13.57,13.57,0,0,1,2.41-2.84,13.64,13.64,0,0,1,3.86-2.28A15.08,15.08,0,0,1,21.17,0Z"/><path class="cls-1" d="M22.62,32.11q3.66-.06,5.1,1.2Q29,34.41,29,37.84a12.19,12.19,0,0,1-.1,2.19,5.45,5.45,0,0,1-.64,1.73,3.09,3.09,0,0,1-1.91,1.38,13.36,13.36,0,0,1-3.62.46q-3.58.06-5.17-1.2a4.67,4.67,0,0,1-1.21-3.55v-1a16.51,16.51,0,0,1,.06-2.16A5,5,0,0,1,17,34a3.14,3.14,0,0,1,1.91-1.41A12.63,12.63,0,0,1,22.62,32.11Z"/><path class="cls-1" d="M92.76,50.17a7.37,7.37,0,0,1,5.52,2.07,6.91,6.91,0,0,1,2.21,5,6.22,6.22,0,0,1-.45,2.53,5.24,5.24,0,0,1-1.16,1.84,8.47,8.47,0,0,1-1.39,1.15,6.65,6.65,0,0,1-1.18.67l-.5.17a6,6,0,0,1,0,.83,1.48,1.48,0,0,1-.27.62,1.38,1.38,0,0,1-.79.49,6.12,6.12,0,0,1-1.47.16,5.5,5.5,0,0,1-1.47-.13A1.2,1.2,0,0,1,91,65a1.92,1.92,0,0,1-.28-.67,5.25,5.25,0,0,1-.06-.94.54.54,0,0,1,0-.11.71.71,0,0,0,0-.14A3,3,0,0,1,91.4,61a3.79,3.79,0,0,1,1.68-1.08A4.68,4.68,0,0,0,94.76,59a1.89,1.89,0,0,0,.76-1.6,2.23,2.23,0,0,0-.62-1.64,2.9,2.9,0,0,0-2.05-.53,2.58,2.58,0,0,0-1.44.39,1.53,1.53,0,0,0-.67.75l-.09.38A3.65,3.65,0,0,1,90,58a1.34,1.34,0,0,1-1.07.44,3.71,3.71,0,0,1-1.28-.26A5.23,5.23,0,0,1,86,57.33a1.33,1.33,0,0,1-.47-1,4.3,4.3,0,0,1,.23-1.11l.06-.16c0-.13.1-.3.18-.53a7.72,7.72,0,0,1,.67-1.17,6.38,6.38,0,0,1,3.24-2.64A7.77,7.77,0,0,1,92.76,50.17Z"/><path class="cls-1" d="M93.51,66.74a3.86,3.86,0,0,1,2.63.62,3.16,3.16,0,0,1,.67,2.33,6.94,6.94,0,0,1,0,1.13,3,3,0,0,1-.34.89,1.61,1.61,0,0,1-1,.72,7.14,7.14,0,0,1-1.87.23A4.07,4.07,0,0,1,90.91,72a2.42,2.42,0,0,1-.63-1.83v-.5a10.38,10.38,0,0,1,0-1.11,2.31,2.31,0,0,1,.32-.88,1.59,1.59,0,0,1,1-.73A6.38,6.38,0,0,1,93.51,66.74Z"/></g></g></svg>