<svg xmlns="http://www.w3.org/2000/svg" xmlns:xlink="http://www.w3.org/1999/xlink" viewBox="0 0 59.23 30.21"><defs><style>.cls-1{fill:#434343;}.cls-2{fill:url(#linear-gradient);}.cls-3{fill:#b0b0b0;}</style><linearGradient id="linear-gradient" x1="-8.33" y1="22.34" x2="-8.37" y2="14.64" gradientTransform="translate(37.96 -15.66)" gradientUnits="userSpaceOnUse"><stop offset="0" stop-color="#fff"/><stop offset="0.28" stop-color="#c9c9c9" stop-opacity="0.76"/><stop offset="0.93" stop-color="#424242" stop-opacity="0.16"/><stop offset="1" stop-color="#333" stop-opacity="0.1"/></linearGradient></defs><title>redmi</title><g id="Layer_2" data-name="Layer 2"><g id="Layer_1-2" data-name="Layer 1"><g id="redmi"><g id="box"><rect class="cls-1" y="4.68" width="59.23" height="25.53" transform="translate(59.23 34.89) rotate(180)"/><polygon class="cls-2" points="59.23 4.68 0 4.68 10 0 49.23 0 59.23 4.68"/></g><g id="redmii"><path class="cls-3" d="M21.22,21.9a6.9,6.9,0,0,1-1.13,0,.74.74,0,0,1-.41-.39c-.47-1-.92-2-1.35-2.95a.58.58,0,0,0-.64-.4c-1.22,0-1.22,0-1.23,1.24,0,.71,0,1.42,0,2.13,0,.31-.11.41-.41.41-.74,0-.74,0-.74-.71,0-2.52,0-5,0-7.56,0-.36.09-.49.47-.48,1,0,2,0,2.93,0A2.31,2.31,0,0,1,21,14.89a2.48,2.48,0,0,1-1.19,2.85c-.36.21-.41.37-.22.72.31.54.57,1.1.84,1.66S20.91,21.24,21.22,21.9Zm-4.76-6.29h0c0,.41,0,.83,0,1.24,0,.13.18.34.28.34a12.8,12.8,0,0,0,1.86-.06,1.42,1.42,0,0,0,1.2-1.31,1.31,1.31,0,0,0-.94-1.52,11.46,11.46,0,0,0-2.2-.17c-.06,0-.19.21-.2.32C16.45,14.83,16.46,15.22,16.46,15.61Z"/><path class="cls-3" d="M34,19c0-.8,0-1.6,0-2.4a.62.62,0,0,1,.41-.67,4,4,0,0,1,3.82.1.67.67,0,0,0,.55,0,3.48,3.48,0,0,1,2.48-.42,1.68,1.68,0,0,1,1.44,1.59c.05,1.49,0,3,0,4.49,0,.09-.16.24-.26.26-.81.12-.88,0-.87-.76,0-1.08,0-2.17,0-3.25,0-.57-.09-1.1-.72-1.35a1.73,1.73,0,0,0-1.78.33.74.74,0,0,0-.16.52c0,1.34,0,2.67,0,4,0,.53-.29.49-.65.51s-.53-.11-.52-.53c0-1.14,0-2.28,0-3.42a1.31,1.31,0,0,0-.67-1.35,1.77,1.77,0,0,0-1.82.07.71.71,0,0,0-.2.53c0,1.38,0,2.76,0,4.14,0,.17-.06.47-.14.49a2.11,2.11,0,0,1-.83,0c-.06,0-.11-.26-.11-.4,0-.81,0-1.63,0-2.44Z"/><path class="cls-3" d="M33.15,13.18V16.1c0,1.65,0,3.29,0,4.94a.51.51,0,0,1-.47.6,5.62,5.62,0,0,1-2.76.14,2.7,2.7,0,0,1-2.13-2.3,4.19,4.19,0,0,1,.25-2.4,2.76,2.76,0,0,1,3.19-1.51c.81.13.81.13.81-.68,0-.34,0-.68,0-1s.1-.52.45-.56A5.21,5.21,0,0,0,33.15,13.18Zm-1.1,5.55h0c0-.59,0-1.18,0-1.77a.46.46,0,0,0-.17-.36c-1.29-.53-2.49-.06-2.76,1A4.71,4.71,0,0,0,29,18.81,2,2,0,0,0,31.67,21c.26-.05.39-.17.38-.44C32,19.92,32.05,19.32,32.05,18.73Z"/><path class="cls-3" d="M26.52,20.62c.13.76.09.85-.57,1a5.17,5.17,0,0,1-2.59.13,2.49,2.49,0,0,1-1.93-1.65,3.79,3.79,0,0,1,.28-3.45,3,3,0,0,1,3.42-1.05,2.64,2.64,0,0,1,1.71,2.47c.08,1.27.12,1-.92,1H22.85c-.46,0-.52.09-.39.54A1.73,1.73,0,0,0,23.84,21a4.45,4.45,0,0,0,2.23-.19Zm-2.38-2.33h0c.42,0,.83,0,1.25,0s.48-.16.42-.51a1.6,1.6,0,0,0-1.73-1.43,1.74,1.74,0,0,0-1.67,1.56c0,.28.1.37.36.37Z"/><path class="cls-3" d="M44.68,18.91c0,.86,0,1.72,0,2.57,0,.36-.12.47-.46.47-.75,0-.75,0-.75-.72,0-1.61,0-3.23,0-4.84,0-.61.36-.47.69-.5s.53.08.52.48c0,.85,0,1.69,0,2.54Z"/><path class="cls-3" d="M44.08,14.74a.81.81,0,0,1-.81-.77.79.79,0,0,1,.83-.74.77.77,0,0,1,.8.77A.75.75,0,0,1,44.08,14.74Z"/></g></g></g></g></svg>